<svg id="bb206e32-49d5-4fe8-a0de-f3f631fed0b9" data-name="Layer 1" xmlns="http://www.w3.org/2000/svg" viewBox="0 0 48.02 45.92">
  <defs>
    <style>
      .e3afa641-9dad-4ad8-81b9-1f2e302858e1 {
        fill: none;
        stroke: #fff;
        stroke-miterlimit: 10;
      }
    </style>
  </defs>
  <path class="e3afa641-9dad-4ad8-81b9-1f2e302858e1" d="M24.92,32.06a7,7,0,1,1,7-7A7.06,7.06,0,0,1,24.92,32.06Z" transform="translate(-1.01 -2.06)"/><path
    d="M25.7,24.35c-.9-.35-1.25-.58-1.21-.93s.27-.59.94-.55a3.17,3.17,0,0,1,1.48.47l.39-1.14a4.09,4.09,0,0,0-1.48-.43l0-.89-1-.08,0,1a1.85,1.85,0,0,0-1.87,1.72c0,1,.66,1.57,1.75,2,.78.31,1.1.59,1.06,1s-.47.62-1.06.58A3.63,3.63,0,0,1,23,26.51l-.39,1.17a4.34,4.34,0,0,0,1.72.55l-.08,1,1,0,.08-1a1.93,1.93,0,0,0,1.95-1.8C27.34,25.45,26.91,24.86,25.7,24.35Z"
    transform="translate(-1.01 -2.06)"/><path
    class="e3afa641-9dad-4ad8-81b9-1f2e302858e1"
    d="M3.13,7.87c.17,0,13.08-2.65,16.94-3.73a35,35,0,0,0,3.7-1.29,4.66,4.66,0,0,1,1.82-.29,10.22,10.22,0,0,1,1.91.21C29,3.14,40.63,6.26,43.12,6.26a26.21,26.21,0,0,0,4.44-.46l.17,0c.25,0,.46-.13.71-.17h0c0,3.54,0,6.86,0,8.44a8.29,8.29,0,0,0-1.45.33c-.21,0-.42.13-.59.17-1.08.25-2.07.62-3.07,1a17.29,17.29,0,0,1-3,.92,14.5,14.5,0,0,1-6.89-.54,13.24,13.24,0,0,1-4-2.21A16.76,16.76,0,0,0,25,11.16a5,5,0,0,0-2.7-.12,21.32,21.32,0,0,1-3.57.37c-1.62,0-3.61-.29-3.78-1.7l-.12-1c.13,0,.24-.11.37-.15a24.44,24.44,0,0,1,2.41-.83c.83-.16,1.66-.06,2.49-.27a6,6,0,0,1,2.51-.33c.75.13,1.61.48,2.44.6a23.53,23.53,0,0,0,2.51.18,24.14,24.14,0,0,0,2.55,0,14.31,14.31,0,0,1,2.53.37,8.46,8.46,0,0,0-2.53-.37c-.83,0-1.66-.13-2.49-.21a21.63,21.63,0,0,1-2.45-.46A8.91,8.91,0,0,1,24,6.92c-.41-.08-.83-.21-1.28-.29A5.62,5.62,0,0,0,20,7c-.79.25-1.58.45-2.41.7a17.15,17.15,0,0,0-2.41.83c-.09,0-.21,0-.29.13h0L14,9c-.08,0-6.14.38-10.62.41-1,0-1.19-.13-1.2-.6C2.13,8.45,2.2,8.13,3.13,7.87Z"
    transform="translate(-1.01 -2.06)"/><path
    class="e3afa641-9dad-4ad8-81b9-1f2e302858e1"
    d="M46.91,42.17c-.17,0-13.08,2.65-16.94,3.73a35,35,0,0,0-3.7,1.29,4.66,4.66,0,0,1-1.82.29,10.14,10.14,0,0,1-1.91-.21c-1.46-.37-13.13-3.49-15.62-3.49a26.44,26.44,0,0,0-4.45.46l-.16,0c-.25,0-.46.12-.71.17h0c0-3.54,0-6.86,0-8.44A8.29,8.29,0,0,0,3,35.68c.21,0,.42-.13.58-.17,1.08-.25,2.08-.62,3.08-.95a17.29,17.29,0,0,1,3-.92,14.37,14.37,0,0,1,6.89.54,13.43,13.43,0,0,1,3.95,2.2A16.52,16.52,0,0,0,25,38.88a5,5,0,0,0,2.7.12,21.32,21.32,0,0,1,3.57-.37c1.62,0,3.61.29,3.78,1.7l.11,1c-.12,0-.23.11-.36.15a24.44,24.44,0,0,1-2.41.83c-.83.16-1.66.06-2.49.27a6,6,0,0,1-2.51.33c-.75-.13-1.61-.48-2.44-.6s-1.68-.14-2.51-.19-1.68,0-2.55,0a14.31,14.31,0,0,1-2.53-.37,8.42,8.42,0,0,0,2.53.37c.83,0,1.66.13,2.49.21a21.63,21.63,0,0,1,2.45.46,8.91,8.91,0,0,1,1.21.29c.41.08.83.2,1.28.29A5.75,5.75,0,0,0,30,43c.79-.25,1.58-.45,2.41-.7a17.15,17.15,0,0,0,2.41-.83.84.84,0,0,0,.29-.13h0l1-.29c.08,0,6.14-.38,10.62-.41,1,0,1.19.13,1.2.6C47.91,41.59,47.84,41.91,46.91,42.17Z"
    transform="translate(-1.01 -2.06)"/></svg>
