<svg xmlns="http://www.w3.org/2000/svg" viewBox="0 0 40 16"><defs><style>.a2495a2b-cbc8-480d-8eee-bc5a5fc38a44{fill:#b3579d;fill-opacity:0;}.a306fce7-5f2f-4576-bc62-b72593c73d05,.b2f612ff-7621-4ecb-8fc7-1e074d1c60b4{fill:#fff;}.b2f612ff-7621-4ecb-8fc7-1e074d1c60b4{fill-rule:evenodd;}</style></defs><title>Bill</title><g id="a494d5f1-3001-45a1-9718-c76115ecd5f0" data-name="Layer 2"><g id="a0f80715-95dd-4f16-b046-82fec1acb97c" data-name="Layer 1"><rect class="a2495a2b-cbc8-480d-8eee-bc5a5fc38a44" width="40" height="16"/><path class="b2f612ff-7621-4ecb-8fc7-1e074d1c60b4" d="M40,0V16H0V0ZM1.78,11H1v4H5v-.2a4,4,0,0,0-3.14-3.71h0ZM39,11h-.78l-.08.09A4,4,0,0,0,35,14.8V15h4ZM1,5h.78l.08-.09A4,4,0,0,0,5,1.2V1H1ZM39,1H35v.2a4,4,0,0,0,3.14,3.71h0l.08.09H39ZM1,10h.22A5,5,0,0,1,6,15H34a5,5,0,0,1,4.78-5H39V6h-.22A5,5,0,0,1,34,1H6A5,5,0,0,1,1.22,6H1Z"/><path class="b2f612ff-7621-4ecb-8fc7-1e074d1c60b4" d="M20,3a5,5,0,1,1-5,5A5,5,0,0,1,20,3Zm0,1a4,4,0,1,0,4,4A4,4,0,0,0,20,4Z"/><path class="a306fce7-5f2f-4576-bc62-b72593c73d05" d="M20.83,9.11a.49.49,0,0,0-.19-.41,1.73,1.73,0,0,0-.56-.26l-.06,0a7.34,7.34,0,0,1-.76-.26,2.18,2.18,0,0,1-.55-.29,1.21,1.21,0,0,1-.36-.39A1.12,1.12,0,0,1,18.22,7a1.08,1.08,0,0,1,.44-.88,2.11,2.11,0,0,1,1.16-.39V5h.65v.68a1.89,1.89,0,0,1,1.12.47,1.33,1.33,0,0,1,.41,1H20.83a.73.73,0,0,0-.2-.56.74.74,0,0,0-.54-.19.84.84,0,0,0-.51.14.49.49,0,0,0-.19.41.45.45,0,0,0,.18.38,1.66,1.66,0,0,0,.61.28l.06,0a8.21,8.21,0,0,1,.79.29,2.38,2.38,0,0,1,.53.3,1.31,1.31,0,0,1,.33.38,1.19,1.19,0,0,1,.11.51,1.06,1.06,0,0,1-.43.87,2.2,2.2,0,0,1-1.18.39V11h-.65v-.62a2.22,2.22,0,0,1-1.28-.46,1.29,1.29,0,0,1-.46-1h1.17a.75.75,0,0,0,.23.58,1,1,0,0,0,.66.2.93.93,0,0,0,.56-.15A.46.46,0,0,0,20.83,9.11Z"/></g></g></svg>