<svg xmlns="http://www.w3.org/2000/svg" viewBox="0 0 40 24"><defs><style>.bee09442-1282-4982-8895-17db012e3eca,.bf707ff8-6d66-4523-b0bc-b88099e1d377{fill:#fff;}.bee09442-1282-4982-8895-17db012e3eca{fill-rule:evenodd;}.a1bab893-9d52-43c9-983e-d0aaaee26e72{fill:#dcdcdc;}</style></defs><title>CC</title><g id="e880b205-62f3-442b-b95a-9b1390846b60" data-name="Layer 2"><g id="b7ba6771-851e-40b5-81d0-f57e5f971169" data-name="Layer 1"><path class="bee09442-1282-4982-8895-17db012e3eca" d="M22,12H36a1,1,0,0,1,1,1h0a1,1,0,0,1-1,1H22a1,1,0,0,1-1-1h0A1,1,0,0,1,22,12Z"/><path class="bee09442-1282-4982-8895-17db012e3eca" d="M22,16h5a1,1,0,0,1,1,1h0a1,1,0,0,1-1,1H22a1,1,0,0,1-1-1h0A1,1,0,0,1,22,16Z"/><path class="bee09442-1282-4982-8895-17db012e3eca" d="M31,16h5a1,1,0,0,1,1,1h0a1,1,0,0,1-1,1H31a1,1,0,0,1-1-1h0A1,1,0,0,1,31,16Z"/><path class="bee09442-1282-4982-8895-17db012e3eca" d="M40,21a3,3,0,0,1-3,3H3a3,3,0,0,1-3-3V3A3,3,0,0,1,3,0H37a3,3,0,0,1,3,3ZM39,8H1V20.5A2.49,2.49,0,0,0,3.34,23H36.5A2.49,2.49,0,0,0,39,20.66V8ZM36.5,1H3.5A2.49,2.49,0,0,0,1,3.34V5H39V3.5A2.5,2.5,0,0,0,36.5,1Z"/><circle class="bf707ff8-6d66-4523-b0bc-b88099e1d377" cx="7" cy="15" r="3"/><circle class="a1bab893-9d52-43c9-983e-d0aaaee26e72" cx="11" cy="15" r="3"/></g></g></svg>