<svg xmlns="http://www.w3.org/2000/svg" viewBox="0 0 41.63 45.88">
  <defs>
    <style>
      .b5bf7d2a-358a-471b-997b-8a9c494664a1 {
        fill: #fff;
      }
      .a49060f6-6dbd-4a5c-9e4d-2a7c9f172ea5 {
        fill: #006fba;
      }
    </style>
  </defs>
  <g id="e807911d-6b8e-4be6-b7ed-eaca88a5ab16" data-name="Layer 2">
    <g id="f5dd1f09-9605-4500-8aca-0da0ecc4ae05" data-name="bd9fe685-d249-4578-b702-e4e118484709"><path
      class="b5bf7d2a-358a-471b-997b-8a9c494664a1"
      d="M8.53,32.48h8.68V45.3a.58.58,0,0,0,.58.58H23.6a.59.59,0,0,0,.61-.4L25.9,40.4l9-7.89h5a1.74,1.74,0,0,0,.57-3.38H8a1.73,1.73,0,0,0-1,2.26A1.77,1.77,0,0,0,8.53,32.48ZM25,39.6a.49.49,0,0,0-.17.25l-1.61,4.87H18.4V32.48a1.16,1.16,0,0,1,1.16,1.16v4.07a.58.58,0,0,0,.58.58h.07l4.06-.59a.55.55,0,0,0,.25-.1h0l7.42-5.12h1.18Zm-1.12-3h0l1.34-4.12h1.4ZM28,32.48H29.9l-3.52,2.44Zm-5.46,4.3L20.72,37V33.68a2.18,2.18,0,0,0-.32-1.2H24Zm-14-6.62H39.89a.58.58,0,0,1,0,1.16H8.53a.58.58,0,0,1,0-1.16h0Z"/><path
      class="b5bf7d2a-358a-471b-997b-8a9c494664a1"
      d="M33.72,8.94a4.09,4.09,0,0,0-2.84-1.26,5.11,5.11,0,0,0-3,1.05,6.59,6.59,0,0,1-1.48.61,6.16,6.16,0,0,1-1.71.2c-.32,0-.63,0-.94-.08a.22.22,0,0,0-.11.42,2.8,2.8,0,0,0,1.29.41,6.18,6.18,0,0,0,1.49.05l.24,0,.11,0,.14,0a.21.21,0,0,1,.21.21.24.24,0,0,1-.05.14l-.1.05-.08,0-.34.16a5.28,5.28,0,0,1-1.67.29,4.25,4.25,0,0,1-.87-.06,3.08,3.08,0,0,1-.88-.31,5.8,5.8,0,0,1-1.36-1.06l-.55-.56a3.89,3.89,0,0,0-.52-.48l-.33-.25c-1.79-1.13-4.62-1.16-6.1.51A5.94,5.94,0,0,0,13,13.29a34.28,34.28,0,0,0,2.05,9.15,44.55,44.55,0,0,0,1.81,4.42,7.19,7.19,0,0,0,1,1.82,1.85,1.85,0,0,0,2.56-.16c.92-.86,1.24-2.24,1.76-3.34.29-.6.59-1.45,1.27-1.69a1.43,1.43,0,0,1,1,0c.68.24,1,1.09,1.27,1.69.53,1.1.85,2.48,1.76,3.34a1.85,1.85,0,0,0,2.56.16,7.19,7.19,0,0,0,1-1.82,44.55,44.55,0,0,0,1.81-4.42A33.52,33.52,0,0,0,35,13.29,5.94,5.94,0,0,0,33.72,8.94Zm-3.91,6.37a6,6,0,0,1-5.55,5.16h-.54a6,6,0,0,1-5.55-5.16.86.86,0,0,1,.31-.83.89.89,0,0,1,.89-.12.88.88,0,0,1,.52.72,4.13,4.13,0,0,0,8.2,0,.87.87,0,1,1,1.72.23Z"/><path class="a49060f6-6dbd-4a5c-9e4d-2a7c9f172ea5" d="M7.6,28.58A15.12,15.12,0,0,1,24.08,3.25C20.09,9.24,10.29,24.48,7.6,28.58Z"/><path class="b5bf7d2a-358a-471b-997b-8a9c494664a1" d="M19.39,2.65l-.25,1.13a11.89,11.89,0,0,1,2.19.7l.45-1.07A12.54,12.54,0,0,0,19.39,2.65Z"/><path class="b5bf7d2a-358a-471b-997b-8a9c494664a1" d="M9.7,4l.55,1a12.94,12.94,0,0,1,6.85-1.5l.11-1.15A14,14,0,0,0,9.7,4Z"/><path class="b5bf7d2a-358a-471b-997b-8a9c494664a1" d="M2.74,19.35l1.13-.26a13.46,13.46,0,0,1-.31-2.53H2.4A13.82,13.82,0,0,0,2.74,19.35Z"/><path class="b5bf7d2a-358a-471b-997b-8a9c494664a1" d="M6.81,26.48l.79-.85a13.11,13.11,0,0,1-2.52-3.27l-1,.55A14,14,0,0,0,6.81,26.48Z"/><path
      class="b5bf7d2a-358a-471b-997b-8a9c494664a1"
      d="M3.64,6.07a1.28,1.28,0,0,0-.51-.59A1.81,1.81,0,0,0,.86,8.3l.27.18a1.69,1.69,0,0,0,.73.23c-4,7.64-1.36,16.6,6.06,21.43,2.9-4.45,13.44-20.82,17.74-27.27C17.65-2.43,8,.19,3.64,6.07Zm-2,.62a.6.6,0,0,1,.84-.19.61.61,0,1,1-.65,1h0a.61.61,0,0,1-.19-.84Zm6,21.89A15.12,15.12,0,0,1,24.08,3.25c-4,6-13.79,21.23-16.48,25.33Z"/></g>
  </g>
</svg>
