<svg id="b70785f8-8f09-463f-8438-c2f58668b9e8" data-name="ac9f9843-46cf-4f2d-b6aa-240f9e596e5c" xmlns="http://www.w3.org/2000/svg" viewBox="0 0 102 99.94">
  <defs>
    <style>
      .favicon-outer-outline, .favicon-fill {
        <!-- fill: none; -->
      }

      .favicon-smile-fill {
        <!-- fill: #fff; -->
      }

      .favicon-outer-outline {
        <!-- stroke: #000; -->
        stroke-miterlimit: 10;
      }
    </style>
  </defs>
  <path d="M95.78,6.5C92.43,2.8,87.63,1.1,82.71.75,77,.41,73.6,2.9,68.84,5.58a29.4,29.4,0,0,1-6.79,2.81,28.66,28.66,0,0,1-7.88.92,31.38,31.38,0,0,1-4.33-.39,1,1,0,1,0-.5,2,13.67,13.67,0,0,0,5.92,1.9,28.06,28.06,0,0,0,6.85.2l1.13-.15a2,2,0,0,0,.49-.1,3.92,3.92,0,0,1,.66-.15,1,1,0,0,1,1,.94.9.9,0,0,1-.26.66,2.22,2.22,0,0,1-.42.25,2.71,2.71,0,0,1-.37.21,13.56,13.56,0,0,1-1.6.73,23.72,23.72,0,0,1-7.65,1.34,19.14,19.14,0,0,1-4-.27,13.82,13.82,0,0,1-4-1.41,27.37,27.37,0,0,1-6.26-4.87L38.2,7.5a24,24,0,0,0-2.41-2.21A18.09,18.09,0,0,0,34.28,4.2C26.05-1,13-1.13,6.21,6.5c-4.85,5.48-6,13-5.65,20C1.29,40.75,5.38,55.33,10,68.65A196.48,196.48,0,0,0,18.35,89c1.31,2.72,2.51,6.18,4.64,8.38,3.27,3.44,8.62,2.17,11.76-.75,4.23-3.92,5.69-10.3,8.12-15.37,1.31-2.75,2.71-6.64,5.84-7.75a6.8,6.8,0,0,1,4.58,0c3.13,1.12,4.52,5,5.84,7.76,2.43,5.07,3.92,11.43,8.12,15.37,3.13,2.92,8.5,4.19,11.77.75,2.11-2.2,3.33-5.66,4.63-8.38A196.65,196.65,0,0,0,92,68.65c4.62-13.35,8.71-27.9,9.44-42.08C101.81,19.5,100.63,12,95.78,6.5Zm-18,29.33A27.41,27.41,0,0,1,52.24,59.58a3.71,3.71,0,0,1-.81.08h-.87a3.71,3.71,0,0,1-.81-.08A27.41,27.41,0,0,1,24.2,35.88a4,4,0,1,1,8-1.08A19.43,19.43,0,0,0,51,51.6,19.44,19.44,0,0,0,69.85,34.79a4,4,0,1,1,7.94,1.07Z" transform="translate(0 -0.01)"/>
  <path class="favicon-fill" d="M95.78,6.5C92.43,2.8,87.63,1.1,82.71.75,77,.41,73.6,2.9,68.84,5.58a29.4,29.4,0,0,1-6.79,2.81,28.66,28.66,0,0,1-7.88.92,31.38,31.38,0,0,1-4.33-.39,1,1,0,1,0-.5,2,13.67,13.67,0,0,0,5.92,1.9,28.06,28.06,0,0,0,6.85.2l1.13-.15a2,2,0,0,0,.49-.1,3.92,3.92,0,0,1,.66-.15,1,1,0,0,1,1,.94.9.9,0,0,1-.26.66,2.22,2.22,0,0,1-.42.25,2.71,2.71,0,0,1-.37.21,13.56,13.56,0,0,1-1.6.73,23.72,23.72,0,0,1-7.65,1.34,19.14,19.14,0,0,1-4-.27,13.82,13.82,0,0,1-4-1.41,27.37,27.37,0,0,1-6.26-4.87L38.2,7.5a24,24,0,0,0-2.41-2.21A18.09,18.09,0,0,0,34.28,4.2C26.05-1,13-1.13,6.21,6.5c-4.85,5.48-6,13-5.65,20C1.29,40.75,5.38,55.33,10,68.65A196.48,196.48,0,0,0,18.35,89c1.31,2.72,2.51,6.18,4.64,8.38,3.27,3.44,8.62,2.17,11.76-.75,4.23-3.92,5.69-10.3,8.12-15.37,1.31-2.75,2.71-6.64,5.84-7.75a6.8,6.8,0,0,1,4.58,0c3.13,1.12,4.52,5,5.84,7.76,2.43,5.07,3.92,11.43,8.12,15.37,3.13,2.92,8.5,4.19,11.77.75,2.11-2.2,3.33-5.66,4.63-8.38A196.65,196.65,0,0,0,92,68.65c4.62-13.35,8.71-27.9,9.44-42.08C101.81,19.5,100.63,12,95.78,6.5Z" transform="translate(0 -0.01)"/>
  <path class="favicon-smile-fill" d="M77.28,35.36A27.4,27.4,0,0,1,51.74,59.08a3.71,3.71,0,0,1-.81.08h-.87a3.71,3.71,0,0,1-.81-.08A27.41,27.41,0,0,1,23.7,35.38a4,4,0,1,1,8-1.08A19.43,19.43,0,0,0,50.5,51.1,19.44,19.44,0,0,0,69.35,34.29a4,4,0,1,1,7.94,1.07Z" transform="translate(0 -0.01)"/>
  <path class="favicon-outer-outline" d="M95.78,6.53C92.43,2.8,87.63,1.1,82.71.75,77,.41,73.6,2.9,68.84,5.58a29.4,29.4,0,0,1-6.79,2.81,28.66,28.66,0,0,1-7.88.92,31.38,31.38,0,0,1-4.33-.39,1,1,0,0,0-1.25.75,1,1,0,0,0,.75,1.25,13.67,13.67,0,0,0,5.92,1.9,27.57,27.57,0,0,0,6.85.2l1.13-.15a1.64,1.64,0,0,0,.49-.1,3.92,3.92,0,0,1,.66-.15,1,1,0,0,1,1,.94.89.89,0,0,1-.26.66,1.79,1.79,0,0,1-.42.25,2.71,2.71,0,0,1-.37.21,12.11,12.11,0,0,1-1.6.73,23.46,23.46,0,0,1-7.65,1.34,19.14,19.14,0,0,1-4-.27,13.53,13.53,0,0,1-4-1.41,27.37,27.37,0,0,1-6.26-4.87L38.2,7.54a24,24,0,0,0-2.41-2.21A18.54,18.54,0,0,0,34.28,4.2C26.05-1,13-1.13,6.21,6.53c-4.85,5.45-6,13-5.65,20C1.29,40.75,5.38,55.33,10,68.65A196.48,196.48,0,0,0,18.35,89c1.31,2.72,2.51,6.18,4.64,8.38,3.27,3.44,8.62,2.17,11.76-.75,4.23-3.92,5.69-10.3,8.12-15.37,1.31-2.73,2.71-6.64,5.84-7.76a6.8,6.8,0,0,1,4.58,0c3.13,1.12,4.52,5,5.84,7.76,2.43,5.07,3.92,11.43,8.12,15.37,3.13,2.92,8.5,4.19,11.77.75,2.11-2.2,3.33-5.66,4.63-8.38A196.48,196.48,0,0,0,92,68.65c4.62-13.35,8.71-27.9,9.44-42.08C101.81,19.54,100.63,12,95.78,6.53Z" transform="translate(0 -0.01)"/>
</svg>
