<svg id="ea12c178-af84-4a93-bf77-4c6d507de6f5" data-name="Layer 1" xmlns="http://www.w3.org/2000/svg" viewBox="0 0 101 98.94">
  <defs>
    <style>
      .a8bc027f-fa02-4148-8f30-d80568b6780a {
        fill: #006fba;
      }
    </style>
  </defs>
  <title>favicon</title>
  <g id="b6b1fba0-baa4-41d1-978c-32a9ed1fd373" data-name="bd662d1f-943c-426c-924b-54f554190296">
    <g id="a0d32892-4a5f-4dd9-902c-5a5a1ffab82c" data-name="bb009b92-fc02-42e6-9ca2-085cd633d3af">
      <path class="a8bc027f-fa02-4148-8f30-d80568b6780a" d="M95.28,6.43C91.93,2.7,87.13,1,82.21.65,76.52.31,73.1,2.8,68.34,5.48a29.4,29.4,0,0,1-6.79,2.81,28.66,28.66,0,0,1-7.88.92,31.38,31.38,0,0,1-4.33-.39,1,1,0,1,0-.5,2,13.67,13.67,0,0,0,5.92,1.9,28.06,28.06,0,0,0,6.85.2l1.13-.15a2,2,0,0,0,.49-.1,3.92,3.92,0,0,1,.66-.15,1,1,0,0,1,1,.94.9.9,0,0,1-.26.66,2.22,2.22,0,0,1-.42.25,2.71,2.71,0,0,1-.37.21,13.56,13.56,0,0,1-1.6.73,23.72,23.72,0,0,1-7.65,1.34,19.14,19.14,0,0,1-4-.27,13.82,13.82,0,0,1-4-1.41,27.37,27.37,0,0,1-6.26-4.87L37.7,7.44a24,24,0,0,0-2.41-2.21A18.54,18.54,0,0,0,33.78,4.1C25.55-1.11,12.54-1.23,5.71,6.43c-4.85,5.45-6,13-5.65,20C.79,40.65,4.88,55.23,9.5,68.55a196.48,196.48,0,0,0,8.35,20.34c1.31,2.72,2.51,6.18,4.64,8.38,3.27,3.44,8.62,2.17,11.76-.75,4.23-3.92,5.69-10.3,8.12-15.37,1.31-2.73,2.71-6.64,5.84-7.76a6.8,6.8,0,0,1,4.58,0c3.13,1.12,4.52,5,5.84,7.76,2.43,5.07,3.92,11.43,8.12,15.37,3.13,2.92,8.5,4.19,11.77.75,2.11-2.2,3.33-5.66,4.63-8.38A196.48,196.48,0,0,0,91.5,68.55c4.62-13.35,8.71-27.9,9.44-42.08C101.31,19.44,100.13,11.88,95.28,6.43Zm-18,29.33A27.4,27.4,0,0,1,51.74,59.48a3.71,3.71,0,0,1-.81.08h-.87a3.71,3.71,0,0,1-.81-.08A27.41,27.41,0,0,1,23.7,35.78a4,4,0,1,1,8-1.08A19.43,19.43,0,0,0,50.5,51.5,19.44,19.44,0,0,0,69.35,34.69a4,4,0,1,1,7.94,1.07Z" transform="translate(0 -0.4)"/>
    </g>
  </g>
</svg>
