<?xml version="1.0" encoding="utf-8"?>
<!-- Generator: Adobe Illustrator 24.0.1, SVG Export Plug-In . SVG Version: 6.00 Build 0)  -->
<svg version="1.1" id="Layer_1" xmlns="http://www.w3.org/2000/svg" xmlns:xlink="http://www.w3.org/1999/xlink" x="0px" y="0px"
	 viewBox="0 0 24 24" style="enable-background:new 0 0 24 24;" xml:space="preserve">
<style type="text/css">
	.st0-google-google{fill-rule:evenodd;clip-rule:evenodd;}
</style>
<g id="ae423df6-f573-4139-91dd-5339b38adf4f">
	<g id="a52c36b1-6e8e-4720-8e6a-20f49565bf82">
		<path class="st0-google" d="M23.8,10.8l-0.1-0.7H11.6v4.7H19c-0.2,0.9-0.6,1.8-1.3,2.5c-1.4,1.3-3.2,2.1-5.1,2l0,0c-2,0-4-0.8-5.5-2.2
			c-2.9-2.8-3-7.4-0.3-10.3c0,0,0.1-0.1,0.1-0.1c2.9-2.9,7.6-2.9,10.5-0.1l0.6,0.6l3.4-3.4l-0.6-0.6C18.6,1.2,15.6,0,12.4,0h-0.1
			C9.1,0,6,1.2,3.7,3.5C1.3,5.7,0,8.8,0,12c0,3.1,1.3,6.1,3.5,8.3l0,0c2.4,2.3,5.6,3.6,9,3.6h0.1c3.1,0.1,6-1.1,8.2-3.2
			c2-2,3.1-4.7,3.1-7.5C24,12.5,23.9,11.6,23.8,10.8z"/>
	</g>
</g>
</svg>
