<?xml version="1.0" encoding="utf-8"?>
<!-- Generator: Adobe Illustrator 24.0.1, SVG Export Plug-In . SVG Version: 6.00 Build 0)  -->
<svg version="1.1" id="Layer_1" xmlns="http://www.w3.org/2000/svg" xmlns:xlink="http://www.w3.org/1999/xlink" x="0px" y="0px"
	 viewBox="0 0 26 26" style="enable-background:new 0 0 26 26;" xml:space="preserve">
<style type="text/css">
	.social-1{fill:#FFFFFF;}
</style>
<title>Shape@2x</title>
<desc>Created with Sketch.</desc>
<path class="social-1" d="M13,0.2c-3.5,0-3.9,0-5.3,0.1C6.4,0.3,5.4,0.6,4.6,0.9C3.8,1.2,3.1,1.6,2.3,2.3C1.6,3.1,1.2,3.8,0.9,4.6
	C0.6,5.4,0.3,6.4,0.3,7.7C0.2,9.1,0.2,9.5,0.2,13s0,3.9,0.1,5.3c0.1,1.4,0.3,2.3,0.6,3.1c0.3,0.8,0.8,1.6,1.5,2.3
	c0.7,0.7,1.4,1.2,2.3,1.5c0.8,0.3,1.7,0.5,3.1,0.6c1.4,0.1,1.8,0.1,5.3,0.1c3.5,0,3.9,0,5.3-0.1c1.4-0.1,2.3-0.3,3.1-0.6
	c0.8-0.3,1.6-0.8,2.3-1.5c0.7-0.7,1.1-1.4,1.5-2.3c0.3-0.8,0.5-1.7,0.6-3.1c0.1-1.4,0.1-1.8,0.1-5.3s0-3.9-0.1-5.3
	c-0.1-1.4-0.3-2.3-0.6-3.1c-0.3-0.8-0.8-1.6-1.5-2.3c-0.7-0.7-1.4-1.1-2.3-1.5c-0.8-0.3-1.7-0.5-3.1-0.6C16.9,0.2,16.5,0.2,13,0.2
	L13,0.2z M11.9,2.5c0.3,0,0.7,0,1.1,0c3.4,0,3.8,0,5.2,0.1c1.2,0.1,1.9,0.3,2.4,0.4c0.6,0.2,1,0.5,1.5,1c0.4,0.4,0.7,0.9,1,1.5
	c0.2,0.5,0.4,1.1,0.4,2.4c0.1,1.3,0.1,1.8,0.1,5.2s0,3.8-0.1,5.2c-0.1,1.2-0.3,1.9-0.4,2.4c-0.2,0.6-0.5,1-1,1.5
	c-0.4,0.4-0.9,0.7-1.5,1c-0.5,0.2-1.1,0.4-2.4,0.4c-1.3,0.1-1.8,0.1-5.2,0.1c-3.4,0-3.8,0-5.2-0.1c-1.2-0.1-1.9-0.3-2.4-0.4
	c-0.6-0.2-1-0.5-1.5-1c-0.4-0.4-0.7-0.9-1-1.5c-0.2-0.5-0.4-1.1-0.4-2.4c-0.1-1.3-0.1-1.8-0.1-5.2s0-3.8,0.1-5.2
	C2.6,6.6,2.8,5.9,3,5.4c0.2-0.6,0.5-1,1-1.5s0.9-0.7,1.5-1c0.5-0.2,1.1-0.4,2.4-0.4C9,2.5,9.5,2.5,11.9,2.5L11.9,2.5z M19.8,4.6
	c-0.8,0-1.5,0.7-1.5,1.5c0,0.8,0.7,1.5,1.5,1.5s1.5-0.7,1.5-1.5C21.4,5.3,20.7,4.6,19.8,4.6L19.8,4.6z M13,6.4
	c-3.6,0-6.6,2.9-6.6,6.6s2.9,6.6,6.6,6.6s6.6-2.9,6.6-6.6S16.6,6.4,13,6.4L13,6.4z M13,8.7c2.4,0,4.3,1.9,4.3,4.3
	c0,2.4-1.9,4.3-4.3,4.3c-2.4,0-4.3-1.9-4.3-4.3C8.7,10.6,10.6,8.7,13,8.7z"/>
</svg>
