<?xml version="1.0" encoding="UTF-8"?>
<svg width="26px" height="26px" viewBox="0 0 26 26" version="1.1" xmlns="http://www.w3.org/2000/svg" xmlns:xlink="http://www.w3.org/1999/xlink">
    <!-- Generator: Sketch 59.1 (86144) - https://sketch.com -->
    <title>Shape@2x</title>
    <desc>Created with Sketch.</desc>
    <g stroke="none" stroke-width="1" fill="none" fill-rule="evenodd">
        <g transform="translate(-11.000000, -11.000000)" fill="#FFFFFF" fill-rule="nonzero">
            <g transform="translate(-0.000000, -0.000000)">
                <g>
                    <g>
                        <g>
                            <g>
                                <path d="M24.0012001,11.2 C20.5248971,11.2 20.0886259,11.2152002 18.7232784,11.2773342 C17.3605975,11.3397348 16.4304545,11.5554704 15.6165794,11.872007 C14.7747039,12.1989438 14.0605631,12.6362816 13.349089,13.3480224 C12.6370816,14.0594965 12.1997438,14.7736372 11.8717403,15.615246 C11.5544037,16.4293878 11.3384014,17.3597975 11.2770674,18.721945 C11.2160002,20.0872926 11.2,20.5238305 11.2,24.0001335 C11.2,27.4764363 11.2154668,27.9113742 11.2773342,29.2767217 C11.3400014,30.6394026 11.555737,31.5695456 11.872007,32.3834207 C12.1992104,33.2252962 12.6365483,33.939437 13.348289,34.6509111 C14.0594965,35.3629185 14.7736372,35.8013231 15.6149794,36.1282598 C16.4293878,36.4447964 17.3597975,36.660532 18.7222117,36.7229327 C20.0875593,36.7850666 20.5235638,36.8002667 23.9996,36.8002667 C27.4761696,36.8002667 27.9111075,36.7850666 29.2764551,36.7229327 C30.6391359,36.660532 31.5703456,36.4447964 32.3847541,36.1282598 C33.2263629,35.8013231 33.939437,35.3629185 34.6506443,34.6509111 C35.3626518,33.939437 35.7999897,33.2252962 36.1279931,32.3836875 C36.4426631,31.5695456 36.6586653,30.6391359 36.7226659,29.2769884 C36.7839999,27.9116408 36.8000001,27.4764363 36.8000001,24.0001335 C36.8000001,20.5238305 36.7839999,20.0875593 36.7226659,18.7222117 C36.6586653,17.3595308 36.4426631,16.4293878 36.1279931,15.6155126 C35.7999897,14.7736372 35.3626518,14.0594965 34.6506443,13.3480224 C33.938637,12.636015 33.2266295,12.198677 32.3839541,11.872007 C31.5679456,11.5554704 30.6372692,11.3397348 29.2745883,11.2773342 C27.9092408,11.2152002 27.4745696,11.2 23.9972,11.2 L24.0012001,11.2 Z M22.8529214,13.5066907 C23.193725,13.5061574 23.5739956,13.5066907 24.0012001,13.5066907 C27.4188357,13.5066907 27.8239066,13.5189575 29.1735207,13.5802914 C30.4215336,13.6373587 31.098874,13.8458942 31.5500787,14.0210961 C32.1474183,14.2530985 32.5732894,14.5304347 33.0210274,14.9784394 C33.4690321,15.426444 33.7463683,15.8531151 33.978904,16.4504547 C34.1541059,16.9011261 34.362908,17.5784665 34.4197087,18.8264794 C34.4810426,20.1758268 34.4943761,20.5811644 34.4943761,23.9972 C34.4943761,27.4132356 34.4810426,27.8185732 34.4197087,29.1679206 C34.3626414,30.4159336 34.1541059,31.093274 33.978904,31.5439454 C33.7469016,32.1412849 33.4690321,32.5666227 33.0210274,33.0143607 C32.5730227,33.4623653 32.147685,33.7397015 31.5500787,33.9717039 C31.0994074,34.1477058 30.4215336,34.3557079 29.1735207,34.4127752 C27.8241733,34.4741092 27.4188357,34.4874427 24.0012001,34.4874427 C20.5832978,34.4874427 20.1782269,34.4741092 18.8288794,34.4127752 C17.5808665,34.3551747 16.9035261,34.1466391 16.4520547,33.9714373 C15.8547151,33.7394349 15.4280441,33.4620987 14.9800394,33.014094 C14.5320347,32.5660893 14.2546985,32.1404849 14.0221627,31.5428787 C13.8469609,31.0922073 13.6381587,30.4148669 13.5813582,29.1668539 C13.5200242,27.8175065 13.5077574,27.412169 13.5077574,23.9939999 C13.5077574,20.575831 13.5200242,20.1726268 13.5813582,18.8232794 C13.6384254,17.5752664 13.8469609,16.897926 14.0221627,16.4467214 C14.2541651,15.8493818 14.5320347,15.4227106 14.9800394,14.974706 C15.4280441,14.5267013 15.8547151,14.2493651 16.4520547,14.0168294 C16.9032594,13.8408275 17.5808665,13.6328254 18.8288794,13.5754914 C20.0096918,13.5221575 20.4672966,13.5061574 22.8529214,13.5034906 L22.8529214,13.5066907 Z M30.8338046,15.6320462 C29.9857958,15.6320462 29.2977886,16.3192534 29.2977886,17.1675288 C29.2977886,18.0155377 29.9857958,18.7035448 30.8338046,18.7035448 C31.6818135,18.7035448 32.3698206,18.0155377 32.3698206,17.1675288 C32.3698206,16.31952 31.6818135,15.6315128 30.8338046,15.6315128 L30.8338046,15.6320462 Z M24.0012001,17.4267315 C20.3710289,17.4267315 17.4277982,20.3699622 17.4277982,24.0001335 C17.4277982,27.6303046 20.3710289,30.5722019 24.0012001,30.5722019 C27.6313713,30.5722019 30.5735352,27.6303046 30.5735352,24.0001335 C30.5735352,20.3699622 27.6311046,17.4267315 24.0009335,17.4267315 L24.0012001,17.4267315 Z M24.0012001,19.7334222 C26.3574913,19.7334222 28.2679112,21.6435754 28.2679112,24.0001335 C28.2679112,26.3564247 26.3574913,28.2668446 24.0012001,28.2668446 C21.6446422,28.2668446 19.7344889,26.3564247 19.7344889,24.0001335 C19.7344889,21.6435754 21.6446422,19.7334222 24.0012001,19.7334222 Z"></path>
                            </g>
                        </g>
                    </g>
                </g>
            </g>
        </g>
    </g>
</svg>