<svg xmlns="http://www.w3.org/2000/svg" viewBox="0 0 58.07 60"><defs><style>.af2a9643-44ca-4e0e-b8f2-e8d0250946c4{fill:#fff;}</style></defs><title>InsuranceForm</title><g id="a6fe083e-4552-4a35-9749-cd9fa4a8e5d8" data-name="Layer 2"><g id="f62d0bf3-6d97-4281-9ba2-af9a8cba1228" data-name="Layer 1"><path class="af2a9643-44ca-4e0e-b8f2-e8d0250946c4" d="M22.93,18h2v2a1,1,0,0,0,1,1h4a1,1,0,0,0,1-1V18h2a1,1,0,0,0,1-1V13a1,1,0,0,0-1-1h-2V10a1,1,0,0,0-1-1h-4a1,1,0,0,0-1,1v2h-2a1,1,0,0,0-1,1v4A1,1,0,0,0,22.93,18Zm1-4h2a1,1,0,0,0,1-1V11h2v2a1,1,0,0,0,1,1h2v2h-2a1,1,0,0,0-1,1v2h-2V17a1,1,0,0,0-1-1h-2Z"/><path class="af2a9643-44ca-4e0e-b8f2-e8d0250946c4" d="M57.64,41.63a1,1,0,0,0-.33-.69,1,1,0,0,0-.73-.24l-5,.35h0l-3.66.26V13h5a1,1,0,0,0,1-1V8a4,4,0,0,0-4-4h-38a4,4,0,0,0-4,4V44.11l-2.23.16a1,1,0,0,0-.49.19h0L.43,47.79A1,1,0,0,0,.55,49.5l5.2,2.65v0a.89.89,0,0,0,.45.12h.07l1.66-.12V55a1,1,0,0,0,1,1h38a1,1,0,0,0,1-1V49.33l.22,0h0l4-.28h0l5-.35a1,1,0,0,0,.92-1.07ZM49,47.24l-.28-4h.07l1.92-.13.28,4ZM51.93,8v3h-4V8a2,2,0,0,1,4,0Zm-42,0a2,2,0,0,1,2-2H46.48a3.94,3.94,0,0,0-.55,2V41.45L9.93,44Zm-5,39.1.17,2.46L2.93,48.47Zm1.94-.9,39.9-2.8.28,4-39.9,2.8ZM45.93,54h-36V52l36-2.52ZM53,47l-.28-4,3-.21.28,4Z"/><rect class="af2a9643-44ca-4e0e-b8f2-e8d0250946c4" x="14.93" y="23" width="2" height="2"/><rect class="af2a9643-44ca-4e0e-b8f2-e8d0250946c4" x="18.93" y="23" width="24" height="2"/><rect class="af2a9643-44ca-4e0e-b8f2-e8d0250946c4" x="12.93" y="27" width="30" height="2"/><rect class="af2a9643-44ca-4e0e-b8f2-e8d0250946c4" x="12.93" y="31" width="26" height="2"/><rect class="af2a9643-44ca-4e0e-b8f2-e8d0250946c4" x="12.93" y="37" width="7" height="2"/><rect class="af2a9643-44ca-4e0e-b8f2-e8d0250946c4" x="31.93" y="37" width="7" height="2"/><rect class="af2a9643-44ca-4e0e-b8f2-e8d0250946c4" x="21.93" y="37" width="2" height="2"/><rect class="af2a9643-44ca-4e0e-b8f2-e8d0250946c4" x="40.93" y="37" width="2" height="2"/><path class="af2a9643-44ca-4e0e-b8f2-e8d0250946c4" d="M49.93,56a2,2,0,0,1-2,2h-11v2h11a4,4,0,0,0,4-4V53h-2Z"/><rect class="af2a9643-44ca-4e0e-b8f2-e8d0250946c4" x="32.93" y="58" width="2" height="2"/><path class="af2a9643-44ca-4e0e-b8f2-e8d0250946c4" d="M5.93,7a5,5,0,0,1,5-5h14V0h-14a7,7,0,0,0-7,7v4h2Z"/><rect class="af2a9643-44ca-4e0e-b8f2-e8d0250946c4" x="26.93" width="2" height="2"/></g></g></svg>