<svg xmlns="http://www.w3.org/2000/svg" viewBox="0 0 347.66 79.87"><defs><style>.bd3111c3-d6cf-4e1d-85d2-0e5e52572806{fill:#1c6ca2;}.b0613dcf-6fbd-4be8-bd50-4af29534d3fc{fill:#2180b3;}.a35dde41-8331-42b1-9886-cd6b22abbf56{fill:#299fc0;}.fc337691-ef84-4d7e-bdfc-703ecb4f2603{fill:#1e68a1;}</style></defs><title>Invisalign-NoProvider</title><g id="ae1c48ce-b83b-44fe-8c12-aa9b693e918d" data-name="Layer 2"><g id="a097b731-8bee-4e53-bcac-82f15e6ac9c7" data-name="Layer 1"><path class="bd3111c3-d6cf-4e1d-85d2-0e5e52572806" d="M46.25,45.24s-.45,15.69,21.89,21.9C61.68,44.82,46.25,45.24,46.25,45.24Z"/><path class="bd3111c3-d6cf-4e1d-85d2-0e5e52572806" d="M33.55,32.63S34,16.94,11.66,10.73C18.12,33.07,33.55,32.63,33.55,32.63Z"/><path class="bd3111c3-d6cf-4e1d-85d2-0e5e52572806" d="M39.94,48.87s-11.39,10.79,0,31C51.15,59.48,39.94,48.87,39.94,48.87Z"/><path class="bd3111c3-d6cf-4e1d-85d2-0e5e52572806" d="M39.86,31s11.39-10.79,0-31C28.65,20.36,39.86,31,39.86,31Z"/><path class="bd3111c3-d6cf-4e1d-85d2-0e5e52572806" d="M48.85,39.88s10.77,11.39,30.95,0C59.45,28.67,48.85,39.88,48.85,39.88Z"/><path class="bd3111c3-d6cf-4e1d-85d2-0e5e52572806" d="M31,40S20.17,28.57,0,40C20.35,51.17,31,40,31,40Z"/><path class="bd3111c3-d6cf-4e1d-85d2-0e5e52572806" d="M46.2,32.59s15.67.45,21.89-21.9C45.77,17.16,46.2,32.59,46.2,32.59Z"/><path class="bd3111c3-d6cf-4e1d-85d2-0e5e52572806" d="M33.6,45.3s-15.67-.45-21.89,21.9C34,60.73,33.6,45.3,33.6,45.3Z"/><path class="b0613dcf-6fbd-4be8-bd50-4af29534d3fc" d="M63.52,56.51C56.25,45,46.25,45.24,46.25,45.24S46,55.48,57.65,62.67a28.83,28.83,0,0,0,5.87-6.16Z"/><path class="b0613dcf-6fbd-4be8-bd50-4af29534d3fc" d="M33.55,32.63s.24-9.39-10-16.54A28.44,28.44,0,0,0,17,22.4C24.15,32.9,33.55,32.63,33.55,32.63Z"/><path class="b0613dcf-6fbd-4be8-bd50-4af29534d3fc" d="M39.94,48.87s-7.15,6.76-4.47,19.59a29,29,0,0,0,8.82,0C47,55.55,39.94,48.87,39.94,48.87Z"/><path class="b0613dcf-6fbd-4be8-bd50-4af29534d3fc" d="M39.86,31S47,24.2,44.33,11.37a29,29,0,0,0-8.82,0C32.82,24.29,39.86,31,39.86,31Z"/><path class="b0613dcf-6fbd-4be8-bd50-4af29534d3fc" d="M48.85,39.88S55.61,47,68.43,44.35a29,29,0,0,0,0-8.82C55.52,32.84,48.85,39.88,48.85,39.88Z"/><path class="b0613dcf-6fbd-4be8-bd50-4af29534d3fc" d="M31,40s-6.77-7.16-19.6-4.47a29.63,29.63,0,0,0,0,8.82C24.28,47,31,40,31,40Z"/><path class="b0613dcf-6fbd-4be8-bd50-4af29534d3fc" d="M46.2,32.59s9.51.25,16.65-10.18a28.78,28.78,0,0,0-6.6-6.29C46,23.3,46.2,32.59,46.2,32.59Z"/><path class="b0613dcf-6fbd-4be8-bd50-4af29534d3fc" d="M33.6,45.3S23.48,45,16.28,56.51a28.93,28.93,0,0,0,5.87,6.18C33.88,55.42,33.6,45.3,33.6,45.3Z"/><path class="a35dde41-8331-42b1-9886-cd6b22abbf56" d="M56.88,49.21a18.75,18.75,0,0,0-10.63-4,19.15,19.15,0,0,0,4.12,10.94,19.35,19.35,0,0,0,6.51-7Z"/><path class="a35dde41-8331-42b1-9886-cd6b22abbf56" d="M33.55,32.63a18.54,18.54,0,0,0-3.17-9.57,19.39,19.39,0,0,0-6.63,6.2A18.4,18.4,0,0,0,33.55,32.63Z"/><path class="a35dde41-8331-42b1-9886-cd6b22abbf56" d="M39.94,48.87a18.78,18.78,0,0,0-4.69,9.83,18.85,18.85,0,0,0,9.32,0A18.58,18.58,0,0,0,39.94,48.87Z"/><path class="a35dde41-8331-42b1-9886-cd6b22abbf56" d="M39.86,31a18.78,18.78,0,0,0,4.69-9.83,19.68,19.68,0,0,0-4.65-.58,19.4,19.4,0,0,0-4.67.59A18.7,18.7,0,0,0,39.86,31Z"/><path class="a35dde41-8331-42b1-9886-cd6b22abbf56" d="M58.66,35.25a18.77,18.77,0,0,0-9.83,4.63,18.78,18.78,0,0,0,9.83,4.69,19.17,19.17,0,0,0,.58-4.65,18.91,18.91,0,0,0-.58-4.67Z"/><path class="a35dde41-8331-42b1-9886-cd6b22abbf56" d="M31,40a18.78,18.78,0,0,0-9.83-4.69,18.62,18.62,0,0,0,0,9.32A18.66,18.66,0,0,0,31,40Z"/><path class="a35dde41-8331-42b1-9886-cd6b22abbf56" d="M49.4,23.06a18.41,18.41,0,0,0-3.2,9.53A18.46,18.46,0,0,0,56,29.24a19.49,19.49,0,0,0-6.62-6.18Z"/><path class="a35dde41-8331-42b1-9886-cd6b22abbf56" d="M33.6,45.3a18.91,18.91,0,0,0-10.67,3.92,19.4,19.4,0,0,0,6.5,7C33.74,50.53,33.6,45.3,33.6,45.3Z"/><path class="fc337691-ef84-4d7e-bdfc-703ecb4f2603" d="M227,53.22V49a13.11,13.11,0,0,1-4.22,3,12.37,12.37,0,0,1-4.95,1,13.77,13.77,0,0,1-10.23-4.12,14.07,14.07,0,0,1-4.07-10.33,14.7,14.7,0,0,1,1-5.48,13.82,13.82,0,0,1,2.91-4.55A13.39,13.39,0,0,1,212,25.24a14,14,0,0,1,5.57-1,12.66,12.66,0,0,1,9.46,4v-3.3h5.44V53.22ZM209.19,38.44A9,9,0,0,0,211.75,45a8.47,8.47,0,0,0,6.32,2.64,8.19,8.19,0,0,0,6-2.65,8.62,8.62,0,0,0,2.6-6.2,9.08,9.08,0,0,0-2.58-6.49,8.2,8.2,0,0,0-6.1-2.7,8.79,8.79,0,0,0-8.81,8.85Z"/><path class="fc337691-ef84-4d7e-bdfc-703ecb4f2603" d="M284.79,65.51c-6,2.78-15.56-1.73-15.56-1.73l2.34-5.23A14.4,14.4,0,0,0,282.52,60c6.11-2.42,5.56-7.72,5.56-7.72V49a13.11,13.11,0,0,1-4.22,3,12.27,12.27,0,0,1-5,1,13.86,13.86,0,0,1-10.23-4.12,14.09,14.09,0,0,1-4-10.38,14.7,14.7,0,0,1,1-5.48,13.74,13.74,0,0,1,2.9-4.56,13.31,13.31,0,0,1,4.51-3.2,14.37,14.37,0,0,1,5.58-1,13.07,13.07,0,0,1,5.16,1,12.79,12.79,0,0,1,4.31,3V24.93h5.42V52.29C293.5,58,290.78,62.71,284.79,65.51ZM270.23,38.44A9,9,0,0,0,272.81,45a8.47,8.47,0,0,0,6.32,2.64,8.21,8.21,0,0,0,6-2.65,8.6,8.6,0,0,0,2.61-6.21,9,9,0,0,0-2.59-6.48A8.2,8.2,0,0,0,279,29.57a8.81,8.81,0,0,0-8.81,8.87Z"/><path class="fc337691-ef84-4d7e-bdfc-703ecb4f2603" d="M306.45,53.21h-5.22V24.75H306v3.11a9.93,9.93,0,0,1,7.8-3.55q5.4,0,8.28,3.18c1.92,2.12,2.89,5.15,2.89,9.1V53.23H319.6V37.64c0-2.92-.53-5.09-1.61-6.5A5.91,5.91,0,0,0,313,29a5.17,5.17,0,0,0-4.91,2.5c-1.09,1.67-1.63,4.41-1.63,8.26Z"/><path class="a35dde41-8331-42b1-9886-cd6b22abbf56" d="M118,53.21h-5.23V24.75h4.8v3.11a10.06,10.06,0,0,1,3.55-2.68,9.92,9.92,0,0,1,4.26-.87c3.59,0,6.34,1.06,8.27,3.18s2.89,5.15,2.89,9.1V53.23h-5.33V37.64q0-4.38-1.63-6.5a5.89,5.89,0,0,0-5-2.12,5.17,5.17,0,0,0-4.91,2.5c-1.09,1.67-1.66,4.41-1.66,8.23Z"/><polygon class="fc337691-ef84-4d7e-bdfc-703ecb4f2603" points="254.21 53.18 254.21 24.58 260.17 24.58 260.17 53.18 254.21 53.18"/><path class="fc337691-ef84-4d7e-bdfc-703ecb4f2603" d="M253,15.69a4.15,4.15,0,1,1,4.15,4.14A4.14,4.14,0,0,1,253,15.69Z"/><polygon class="fc337691-ef84-4d7e-bdfc-703ecb4f2603" points="240.24 53.18 240.24 11.85 246.19 11.85 246.19 53.18 240.24 53.18"/><polygon class="a35dde41-8331-42b1-9886-cd6b22abbf56" points="169.43 53.18 169.43 24.58 175.38 24.58 175.38 53.18 169.43 53.18"/><path class="a35dde41-8331-42b1-9886-cd6b22abbf56" d="M168.26,15.69a4.13,4.13,0,1,1,1.21,2.93,4.14,4.14,0,0,1-1.21-2.93Z"/><polygon class="a35dde41-8331-42b1-9886-cd6b22abbf56" points="98.78 53.18 98.78 24.58 104.73 24.58 104.73 53.18 98.78 53.18"/><path class="a35dde41-8331-42b1-9886-cd6b22abbf56" d="M97.61,15.69a4.15,4.15,0,1,1,4.14,4.14,4.15,4.15,0,0,1-4.14-4.14Z"/><polygon class="a35dde41-8331-42b1-9886-cd6b22abbf56" points="138.26 24.59 145.02 24.59 152.24 40.27 160.07 24.59 166.83 24.59 152.08 53.18 138.26 24.59"/><path class="a35dde41-8331-42b1-9886-cd6b22abbf56" d="M191.44,36.33c-2.12-.68-4.95-1.79-4.95-3.41,0-1.79,1.22-2.87,3.61-3.19a7.71,7.71,0,0,1,5.12,1.52l2.91-4.54a13.73,13.73,0,0,0-8.86-2.17c-5.21.72-8.44,3.92-8.44,8.38,0,5.54,6.59,7.66,8.75,8.35,3.42,1.1,4.63,2,4.63,3.58,0,2.9-3.79,3.13-5,3.13-2.19,0-5.29-1.4-6.29-1.93l-2.86,4.52c.51.27,5,2.65,9.15,2.65,5.13,0,10.64-2.62,10.64-8.37S193.75,37.09,191.44,36.33Z"/><path class="bd3111c3-d6cf-4e1d-85d2-0e5e52572806" d="M341.54,24.37a6.13,6.13,0,1,0,6.12,6.12A6.14,6.14,0,0,0,341.54,24.37Zm5,6.12a5,5,0,1,1-5-5A5,5,0,0,1,346.54,30.49Z"/><path class="bd3111c3-d6cf-4e1d-85d2-0e5e52572806" d="M339.15,27.39a12.69,12.69,0,0,1,1.85-.13,3.63,3.63,0,0,1,2.18.5,1.42,1.42,0,0,1,.58,1.15,1.69,1.69,0,0,1-1.41,1.53h0a1.64,1.64,0,0,1,1.1,1.22,8.14,8.14,0,0,0,.57,1.66h-1a6.59,6.59,0,0,1-.48-1.44A1.33,1.33,0,0,0,342,31a1.38,1.38,0,0,0-1-.27h-.9v2.64h-1Zm1,2.74h1c1,0,1.68-.45,1.68-1.15s-.7-1.11-1.72-1.11a5,5,0,0,0-.95.06Z"/></g></g></svg>