<svg xmlns="http://www.w3.org/2000/svg" viewBox="0 0 86.9 119.76"><defs><style>.ab5ee0df-0f44-488e-9744-4b662aafd8b6{fill:#fff;}.b6b3412b-8c48-47cc-8217-23d0bbc6a06e{fill:#035f9b;}.e36542b4-4160-45bc-9241-2ca948f9d382{fill:#b0aeb0;}</style></defs><title>InvisalignPreferred</title><g id="f842418a-8275-4827-9bcc-e367d079f096" data-name="Layer 2"><g id="a72ab172-99bc-47df-96a4-e95c94ce061f" data-name="Layer 1"><rect class="ab5ee0df-0f44-488e-9744-4b662aafd8b6" x="1.9" y="48.49" width="83.1" height="69.37"/><rect class="b6b3412b-8c48-47cc-8217-23d0bbc6a06e" x="2.3" y="27.04" width="82.2" height="21.16"/><polygon class="e36542b4-4160-45bc-9241-2ca948f9d382" points="21.55 27.64 18.96 12.27 33.92 10.88 43.5 0 52.88 11.08 68.04 12.38 65.35 27.24 21.55 27.64"/><path class="e36542b4-4160-45bc-9241-2ca948f9d382" d="M86.9,119.76H0V25.05H86.9ZM3.8,116H83.1V28.85H3.8Z"/><rect class="e36542b4-4160-45bc-9241-2ca948f9d382" x="1.9" y="46.58" width="83.4" height="3.81"/><path class="ab5ee0df-0f44-488e-9744-4b662aafd8b6" d="M28,25c-.4.2-9.08-12.68-9.08-12.68s15.36,6,17.26,8.79C37.12,15,43.5,0,43.5,0s7.18,18.06,7.08,20.76c4.1-3.88,17-8.29,17-8.29s-8,11.18-8.68,12.58C54.57,22.75,31.53,23.35,28,25Z"/><polygon class="e36542b4-4160-45bc-9241-2ca948f9d382" points="8.75 33.41 8.75 43.3 6.94 43.3 6.94 33.41 8.75 33.41"/><path class="e36542b4-4160-45bc-9241-2ca948f9d382" d="M11,43.3V33.41H13l2.55,4.24A27.25,27.25,0,0,1,17.24,41h0c-.12-1.32-.16-2.6-.16-4.11V33.41h1.67V43.3H16.92L14.34,39a34.83,34.83,0,0,1-1.78-3.43h0c.07,1.28.08,2.59.08,4.22V43.3Z"/><path class="e36542b4-4160-45bc-9241-2ca948f9d382" d="M23.26,43.3l-3.2-9.89h2l1.35,4.48c.38,1.25.71,2.41,1,3.61h0c.26-1.17.62-2.37,1-3.58l1.44-4.52h1.92l-3.43,9.89Z"/><polygon class="e36542b4-4160-45bc-9241-2ca948f9d382" points="31.75 33.41 31.75 43.3 29.94 43.3 29.94 33.41 31.75 33.41"/><path class="e36542b4-4160-45bc-9241-2ca948f9d382" d="M33.91,41.34A5.1,5.1,0,0,0,36.3,42c1.15,0,1.8-.55,1.8-1.35s-.5-1.19-1.76-1.65c-1.63-.59-2.67-1.45-2.67-2.88,0-1.61,1.35-2.84,3.49-2.84a5.11,5.11,0,0,1,2.37.5L39.1,35.2a4.12,4.12,0,0,0-2-.47c-1.14,0-1.64.62-1.64,1.19,0,.76.57,1.11,1.89,1.63,1.72.64,2.55,1.51,2.55,2.93,0,1.59-1.2,3-3.75,3a5.85,5.85,0,0,1-2.67-.62Z"/><path class="e36542b4-4160-45bc-9241-2ca948f9d382" d="M43.67,40.5l-.84,2.8H41l3.16-9.89h2.31l3.21,9.89H47.72l-.9-2.8Zm2.84-1.37-.78-2.43c-.19-.61-.35-1.28-.5-1.85h0c-.14.57-.29,1.26-.47,1.85L44,39.13Z"/><polygon class="e36542b4-4160-45bc-9241-2ca948f9d382" points="51.15 33.41 52.95 33.41 52.95 41.79 57.02 41.79 57.02 43.3 51.15 43.3 51.15 33.41"/><polygon class="e36542b4-4160-45bc-9241-2ca948f9d382" points="60.33 33.41 60.33 43.3 58.53 43.3 58.53 33.41 60.33 33.41"/><path class="e36542b4-4160-45bc-9241-2ca948f9d382" d="M70.45,42.85a9.86,9.86,0,0,1-3.19.55,5.3,5.3,0,0,1-3.87-1.32A4.91,4.91,0,0,1,62,38.44c0-3.12,2.23-5.13,5.5-5.13a6.44,6.44,0,0,1,2.64.47l-.4,1.45a5.44,5.44,0,0,0-2.26-.42,3.31,3.31,0,0,0-3.59,3.56A3.27,3.27,0,0,0,67.32,42a3.54,3.54,0,0,0,1.37-.21V39.28H67V37.85h3.5Z"/><path class="e36542b4-4160-45bc-9241-2ca948f9d382" d="M72.43,43.3V33.41h2L77,37.65A27.25,27.25,0,0,1,78.72,41h0c-.12-1.32-.16-2.6-.16-4.11V33.41h1.67V43.3H78.4L75.82,39A34.83,34.83,0,0,1,74,35.53h0c.07,1.28.08,2.59.08,4.22V43.3Z"/><path class="e36542b4-4160-45bc-9241-2ca948f9d382" d="M9.75,83.6V80.37l3-2.67c5-4.46,7.4-7,7.47-9.69,0-1.86-1.12-3.33-3.75-3.33a8.26,8.26,0,0,0-4.88,1.89L10,62.75a12.63,12.63,0,0,1,7.48-2.35c5.16,0,8,3,8,7.16,0,3.83-2.78,6.88-6.07,9.83l-2.11,1.75v.07h8.6V83.6Z"/><path class="e36542b4-4160-45bc-9241-2ca948f9d382" d="M44.33,72.09c0,7-2.84,11.9-8.67,11.9s-8.49-5.3-8.53-11.76,2.81-11.83,8.7-11.83C41.94,60.4,44.33,65.84,44.33,72.09Zm-11.83.14c0,5.23,1.23,7.72,3.3,7.72S39,77.35,39,72.16s-1.08-7.73-3.23-7.73c-2,0-3.29,2.5-3.26,7.8Z"/><polygon class="e36542b4-4160-45bc-9241-2ca948f9d382" points="52.01 65.52 51.94 65.52 47.58 67.59 46.71 63.59 52.74 60.78 57.16 60.78 57.16 83.6 52.01 83.6 52.01 65.52"/><path class="e36542b4-4160-45bc-9241-2ca948f9d382" d="M69,72.72a3.57,3.57,0,0,0,1.63-.34,3.37,3.37,0,0,0,1.15-.93,4.36,4.36,0,0,0,.69-1.36,5.71,5.71,0,0,0,.22-1.62,5.17,5.17,0,0,0-.24-1.55,4.18,4.18,0,0,0-.72-1.37,3.5,3.5,0,0,0-1.16-1A3.33,3.33,0,0,0,69,64.22a3,3,0,0,0-1.47.36,3.51,3.51,0,0,0-1.11,1,4,4,0,0,0-.69,1.34,5.32,5.32,0,0,0-.23,1.54A6,6,0,0,0,65.75,70a4.73,4.73,0,0,0,.64,1.38,3.35,3.35,0,0,0,1.1,1A3.09,3.09,0,0,0,69,72.72Zm-3.33,5.14a3.92,3.92,0,0,0,1,2,2.7,2.7,0,0,0,2,.85A3,3,0,0,0,70.87,80a5.43,5.43,0,0,0,1.31-1.8,9.08,9.08,0,0,0,.7-2.27,20.72,20.72,0,0,0,.28-2.16l-.07-.07a5.58,5.58,0,0,1-2.22,2,7.3,7.3,0,0,1-5.82,0,7.17,7.17,0,0,1-2.38-1.72,6.73,6.73,0,0,1-1.35-2.39,9,9,0,0,1-.42-2.71,9.28,9.28,0,0,1,.57-3.29,7.76,7.76,0,0,1,7.44-5.08,8.1,8.1,0,0,1,4.3,1,8,8,0,0,1,2.7,2.71A11.33,11.33,0,0,1,77.31,68a23.74,23.74,0,0,1,.39,4.28,18.76,18.76,0,0,1-.49,4.26,12.33,12.33,0,0,1-1.57,3.84,8.68,8.68,0,0,1-2.78,2.78,7.64,7.64,0,0,1-4.15,1.06A9,9,0,0,1,66,83.76a6.77,6.77,0,0,1-2.26-1.22,6.54,6.54,0,0,1-1.6-2,7.94,7.94,0,0,1-.82-2.68Z"/><path class="e36542b4-4160-45bc-9241-2ca948f9d382" d="M9.51,94.76V86.3H13a3,3,0,0,1,1.78.42,2.4,2.4,0,0,1,1.15,2.09,2.58,2.58,0,0,1-2.74,2.6H11.06v3.35ZM11,90.1h1.82c1.1,0,1.44-.67,1.44-1.25a1.36,1.36,0,0,0-.23-.76c-.22-.37-.67-.53-1.35-.53H11Z"/><path class="e36542b4-4160-45bc-9241-2ca948f9d382" d="M22.27,94.76,21,91.28H18.81v3.48H17.29V86.3H21a3,3,0,0,1,2.21.66,2.32,2.32,0,0,1,.76,1.82A2.25,2.25,0,0,1,22.41,91l1.48,3.73Zm-3.46-4.69h1.9c.75,0,1.63-.27,1.63-1.32,0-.64-.42-1.24-1.5-1.24h-2Z"/><polygon class="e36542b4-4160-45bc-9241-2ca948f9d382" points="25.62 94.76 25.62 86.3 31.06 86.3 31.06 87.56 27.16 87.56 27.16 89.86 30.3 89.86 30.3 91.09 27.16 91.09 27.16 93.46 31.11 93.46 31.11 94.78 25.62 94.76"/><polygon class="e36542b4-4160-45bc-9241-2ca948f9d382" points="32.61 94.76 32.61 86.3 37.96 86.3 37.96 87.62 34.17 87.62 34.17 89.93 37.15 89.93 37.15 91.2 34.17 91.2 34.17 94.76 32.61 94.76"/><polygon class="e36542b4-4160-45bc-9241-2ca948f9d382" points="39.23 94.76 39.23 86.3 44.67 86.3 44.67 87.56 40.75 87.56 40.75 89.86 43.9 89.86 43.9 91.09 40.75 91.09 40.75 93.46 44.72 93.46 44.72 94.78 39.23 94.76"/><path class="e36542b4-4160-45bc-9241-2ca948f9d382" d="M51.21,94.76l-1.32-3.48H47.74v3.48H46.22V86.3h3.67a3,3,0,0,1,2.2.66,2.3,2.3,0,0,1,.77,1.82A2.26,2.26,0,0,1,51.34,91l1.48,3.73Zm-3.47-4.69h1.91c.74,0,1.62-.27,1.62-1.32,0-.64-.42-1.24-1.5-1.24h-2Z"/><path class="e36542b4-4160-45bc-9241-2ca948f9d382" d="M59.54,94.76l-1.32-3.48H56.08v3.48H54.55V86.3h3.67a3.06,3.06,0,0,1,2.21.66,2.32,2.32,0,0,1,.76,1.82A2.26,2.26,0,0,1,59.67,91l1.49,3.73Zm-3.46-4.69H58c.75,0,1.62-.27,1.62-1.32,0-.64-.42-1.24-1.49-1.24h-2Z"/><polygon class="e36542b4-4160-45bc-9241-2ca948f9d382" points="62.89 94.76 62.89 86.3 68.33 86.3 68.33 87.56 64.41 87.56 64.41 89.86 67.55 89.86 67.55 91.09 64.41 91.09 64.41 93.46 68.38 93.46 68.38 94.78 62.89 94.76"/><path class="e36542b4-4160-45bc-9241-2ca948f9d382" d="M69.84,86.3H73a3.42,3.42,0,0,1,2.61,1,4.48,4.48,0,0,1,1.21,3.17,4.39,4.39,0,0,1-1.41,3.37,4.27,4.27,0,0,1-2.75.87H69.84Zm1.56,7.22h1.28c1.32,0,2.45-1,2.45-3.06,0-1.55-.83-3-2.27-3H71.4Z"/><path class="e36542b4-4160-45bc-9241-2ca948f9d382" d="M9.51,106.18V97.72H13a3,3,0,0,1,1.78.42,2.37,2.37,0,0,1,1.13,2.08,2.57,2.57,0,0,1-2.74,2.6H11v3.35ZM11,101.52h1.82c1.1,0,1.44-.67,1.44-1.25a1.36,1.36,0,0,0-.23-.76c-.22-.37-.67-.53-1.35-.53H11Z"/><path class="e36542b4-4160-45bc-9241-2ca948f9d382" d="M23.74,106.18l-1.32-3.48H20.28v3.48H18.76V97.72h3.66a3,3,0,0,1,2.21.66,2.32,2.32,0,0,1,.76,1.82,2.26,2.26,0,0,1-1.52,2.25l1.48,3.73Zm-3.46-4.69h1.9c.75,0,1.63-.27,1.63-1.32,0-.64-.42-1.25-1.5-1.25h-2Z"/><path class="e36542b4-4160-45bc-9241-2ca948f9d382" d="M31.56,106.31c-2.67,0-3.57-2.48-3.57-4.39,0-2.29,1.3-4.33,3.63-4.33s3.56,2.08,3.56,4.35C35.18,104.53,33.78,106.31,31.56,106.31Zm1.56-6.56a1.59,1.59,0,0,0-1.52-.93c-1.6,0-2,1.64-2,3.15,0,1,.17,3.11,1.93,3.11a1.79,1.79,0,0,0,1.58-1,4.49,4.49,0,0,0,.38-2.17,5.25,5.25,0,0,0-.41-2.18Z"/><polygon class="e36542b4-4160-45bc-9241-2ca948f9d382" points="39.7 106.18 37.09 97.72 38.7 97.72 40.64 104.2 42.62 97.72 43.89 97.72 41.25 106.18 39.7 106.18"/><polygon class="e36542b4-4160-45bc-9241-2ca948f9d382" points="46.49 106.18 46.49 97.72 48.01 97.72 48.01 106.18 46.49 106.18"/><path class="e36542b4-4160-45bc-9241-2ca948f9d382" d="M51.49,97.72H54.6a3.42,3.42,0,0,1,2.62,1,4.47,4.47,0,0,1,1.2,3.17A4.35,4.35,0,0,1,57,105.31a4.23,4.23,0,0,1-2.75.86H51.49ZM53,104.94h1.28c1.32,0,2.45-1,2.45-3.06,0-1.55-.82-3-2.27-3H53Z"/><polygon class="e36542b4-4160-45bc-9241-2ca948f9d382" points="61.48 106.18 61.48 97.72 66.92 97.72 66.92 98.97 63.01 98.97 63.01 101.28 66.15 101.28 66.15 102.51 63.01 102.51 63.01 104.88 66.96 104.88 66.96 106.2 61.48 106.18"/><path class="e36542b4-4160-45bc-9241-2ca948f9d382" d="M74.93,106.18l-1.32-3.48H71.46v3.48H69.94V97.72h3.67a3,3,0,0,1,2.2.66,2.32,2.32,0,0,1,.76,1.82,2.26,2.26,0,0,1-1.52,2.25l1.49,3.73Zm-3.47-4.69h1.9c.75,0,1.63-.27,1.63-1.32,0-.64-.42-1.25-1.5-1.25h-2Z"/></g></g></svg>