<?xml version="1.0" encoding="utf-8"?>
<!-- Generator: Adobe Illustrator 23.1.1, SVG Export Plug-In . SVG Version: 6.00 Build 0)  -->
<svg version="1.1" id="Layer_1" xmlns="http://www.w3.org/2000/svg" xmlns:xlink="http://www.w3.org/1999/xlink" x="0px" y="0px"
	 viewBox="0 0 24.6 25.8" style="enable-background:new 0 0 24.6 25.8;" xml:space="preserve">
<g id="f8d06834-5fc3-4c7e-990c-0564a6451b98">
	<g id="b59ebe1c-8087-4f88-a4c9-6f580b17ea49">
		<path d="M23.9,18.6c-1.3-1.1-2.7-2.2-4.1-3.3c-0.6-0.4-1.3-0.5-1.9-0.4c-0.5,0.2-0.9,0.6-1.2,1c-0.6,0.9-1.6,1.4-2.7,1.3
			c-0.9-0.2-1.8-0.6-2.4-1.3l-2.3-2.4c-0.7-0.7-1.1-1.5-1.3-2.5C8,10,8.5,8.9,9.4,8.2c0.4-0.3,0.7-0.8,0.9-1.2
			c0.2-0.7,0.1-1.4-0.3-2C9,3.6,7.9,2.1,6.9,0.7C6.3,0.1,5.5-0.1,4.7,0.1C4.1,0.3,3.6,0.7,3.2,1.2c-1.9,2-3.6,4.6-3.1,7.9
			c0.4,2.7,2.2,5.2,4.9,8.1l3.2,3.4c2.7,2.9,5.2,4.7,7.7,5.2s5.3-0.8,7.5-3.2c0.5-0.5,0.8-1,1-1.6C24.7,20.1,24.4,19.2,23.9,18.6"/>
	</g>
</g>
</svg>
