<svg id="f01fcf21-a74a-42e5-aef0-b009235da78d" data-name="Layer 1" xmlns="http://www.w3.org/2000/svg" viewBox="0 0 51 44">
  <defs>
    <style>
      .b92d50f5-dcbb-4795-b6ae-0d13c6213f03 {
        fill: #58595b;
      }
    </style>
  </defs>
  <g id="afb59d39-40d6-42f7-bdc9-81a572ba2548" data-name="V4">
    <g id="ebe7925d-249d-4594-bd28-e3decbf80355" data-name="Home">
      <g id="eb2eb518-0944-4cc5-ae0f-a95de4f9a636" data-name="Group">
        <g id="e7dd1d1d-a56a-4349-94e7-41975c922b87" data-name="Testimonial">
          <path id="af3df061-f945-4edd-b41b-1d0867881743" data-name="Shape" class="b92d50f5-dcbb-4795-b6ae-0d13c6213f03" d="M43.89,0H7.11A7,7,0,0,0,0,7V28a7,7,0,0,0,7.11,7H19.05l12,8.83a1,1,0,0,0,.58.19,1,1,0,0,0,.44-.1,1,1,0,0,0,.54-.85V35H43.89A7,7,0,0,0,51,28v-21A7,7,0,0,0,43.89,0ZM49,28a5.11,5.11,0,0,1-5.15,5.05H31.63a1,1,0,0,0-1,1v7.09L20,33.26a1,1,0,0,0-.59-.19H7.11A5.1,5.1,0,0,1,2,28V7A5.1,5.1,0,0,1,7.11,1.92H43.89A5.1,5.1,0,0,1,49,7Z"/>
          <path class="b92d50f5-dcbb-4795-b6ae-0d13c6213f03" d="M24,11.33a1.31,1.31,0,0,0-.39-1,1.19,1.19,0,0,0-1-.34H15A1,1,0,0,0,14,11v7.45a1,1,0,0,0,.28.7.9.9,0,0,0,.67.29h2.24a6.15,6.15,0,0,1-1.73,3.75,1,1,0,0,0-.06,1.34l1.71,2.12a1,1,0,0,0,1.18.24h0a1.61,1.61,0,0,0,.3-.21l.43-.43.8-.79A12.43,12.43,0,0,0,24,16.6c.05-1.18,0-2.38,0-3.53C24,12.5,24,11.91,24,11.33Zm-1.9,5.19A10.47,10.47,0,0,1,18.58,24l-.64.61-.55-.7a8.44,8.44,0,0,0,1.76-5.47,1,1,0,0,0-1-1H15.88V12H22v1.13C22.1,14.23,22.11,15.39,22.07,16.52Z"/>
          <path class="b92d50f5-dcbb-4795-b6ae-0d13c6213f03" d="M37,11.33a1.31,1.31,0,0,0-.39-1,1.17,1.17,0,0,0-1-.34H28A1,1,0,0,0,27,11v7.45a1,1,0,0,0,.28.7.9.9,0,0,0,.67.29h2.24a6.18,6.18,0,0,1-1.73,3.75,1,1,0,0,0-.06,1.34l1.71,2.12a1,1,0,0,0,1.18.24h0a1.61,1.61,0,0,0,.3-.21l.43-.43.8-.79A12.43,12.43,0,0,0,37,16.6c.05-1.18,0-2.38,0-3.53C37,12.5,37,11.91,37,11.33Zm-1.9,5.19A10.47,10.47,0,0,1,31.58,24l-.64.61-.55-.7a8.44,8.44,0,0,0,1.76-5.47,1,1,0,0,0-1-1H28.91V12h6.15v1.13C35.1,14.22,35.12,15.39,35.07,16.52Z"/>
        </g>
      </g>
    </g>
  </g>
</svg>
