<svg xmlns="http://www.w3.org/2000/svg" viewBox="0 0 101 98.94"><defs><style>.b5e369f0-40cf-4016-8a48-20006889ef90{fill:#fff;}</style></defs><title>Tooth</title><g id="b816f24f-fb08-4f0e-998c-5942f5eb774b" data-name="Layer 2"><g id="ab8d2ca0-b23e-422d-a72a-9d86a8d02d66" data-name="Layer 1"><path class="b5e369f0-40cf-4016-8a48-20006889ef90" d="M95.28,6C91.93,2.3,87.13.55,82.21.25,76.52-.09,73.1,2.4,68.34,5.08a29.82,29.82,0,0,1-6.79,2.8,28.29,28.29,0,0,1-7.88.93,34.83,34.83,0,0,1-4.33-.39,1,1,0,0,0-.5,2,13.67,13.67,0,0,0,5.92,1.9,27.57,27.57,0,0,0,6.85.19l1.13-.15a2.13,2.13,0,0,0,.49-.1l.66-.15a1,1,0,0,1,.68.27.94.94,0,0,1,.29.68.87.87,0,0,1-.26.65,1.83,1.83,0,0,1-.42.26l-.37.21a12.05,12.05,0,0,1-1.6.72,23.47,23.47,0,0,1-7.65,1.35,19.38,19.38,0,0,1-4-.27,14,14,0,0,1-4-1.41,27.37,27.37,0,0,1-6.26-4.87L37.7,7a24.2,24.2,0,0,0-2.41-2.22A16.86,16.86,0,0,0,33.78,3.7C25.55-1.51,12.54-1.63,5.71,6c-4.85,5.44-6,13-5.65,20C.79,40.25,4.88,54.82,9.5,68.15a196.48,196.48,0,0,0,8.35,20.34c1.31,2.72,2.51,6.17,4.64,8.38,3.27,3.44,8.62,2.16,11.76-.75,4.23-3.92,5.69-10.3,8.12-15.37C43.68,78,45.08,74.11,48.21,73a6.8,6.8,0,0,1,4.58,0c3.13,1.13,4.52,5,5.84,7.77,2.43,5.07,3.92,11.42,8.12,15.37,3.13,2.91,8.5,4.19,11.77.75,2.11-2.21,3.33-5.66,4.63-8.38A196.48,196.48,0,0,0,91.5,68.15c4.62-13.36,8.71-27.9,9.44-42.08C101.31,19,100.13,11.47,95.28,6Zm-18,29.33A27.4,27.4,0,0,1,51.74,59.07a3.72,3.72,0,0,1-.81.09h-.87a3.72,3.72,0,0,1-.81-.09A27.4,27.4,0,0,1,23.7,35.37a4,4,0,1,1,8-1.07A19.43,19.43,0,0,0,50.5,51.1,19.45,19.45,0,0,0,69.35,34.28a4,4,0,1,1,7.94,1.08Z"/></g></g></svg>