<svg xmlns="http://www.w3.org/2000/svg" viewBox="0 0 277.02 149.91"><defs><style>.a7aea777-5399-490c-a5c7-2c9fe7c58cbb{fill:#f7403a;}</style></defs><g id="ff64b096-9fc7-4323-9c58-3b8afb42b5ac" data-name="Layer 2"><g id="ea426e9e-9a5b-4630-8716-a50874eeb175" data-name="Layer 1"><path class="a7aea777-5399-490c-a5c7-2c9fe7c58cbb" d="M146,73.4a8.16,8.16,0,0,0-5.13-2c-1.42,0-3.31.83-3.31,2.49s2.09,2.4,3.43,2.84l2,.59c4.14,1.22,7.34,3.31,7.34,8.12,0,3-.71,6-3.08,8a13.06,13.06,0,0,1-8.44,2.8,18.32,18.32,0,0,1-10.45-3.39l3.31-6.23a10.62,10.62,0,0,0,6.86,3.07c1.82,0,3.75-.9,3.75-3s-3-2.92-4.69-3.4c-4.85-1.38-8-2.64-8-8.4,0-6,4.3-10,10.25-10a20.39,20.39,0,0,1,9.32,2.45Z"/><path class="a7aea777-5399-490c-a5c7-2c9fe7c58cbb" d="M156.71,65.75h7.61l6,15.9,6.39-15.9h7.69l4.5,29.74H181.2L179,78.37H179l-7.14,17.12h-3.08l-6.83-17.12h-.07l-2.49,17.12h-7.69Z"/><path class="a7aea777-5399-490c-a5c7-2c9fe7c58cbb" d="M199.94,95.49h-7.73V65.75h7.73Z"/><path class="a7aea777-5399-490c-a5c7-2c9fe7c58cbb" d="M211.91,88.94h9.28v6.55h-17V65.75h7.73Z"/><path class="a7aea777-5399-490c-a5c7-2c9fe7c58cbb" d="M231.44,72.3v5h8.72v6.55h-8.72v5.12h9.19v6.55H223.71V65.75h16.92V72.3Z"/><path class="a7aea777-5399-490c-a5c7-2c9fe7c58cbb" d="M261,73.4a8.14,8.14,0,0,0-5.13-2c-1.42,0-3.31.83-3.31,2.49s2.09,2.4,3.43,2.84l2,.59c4.15,1.22,7.34,3.31,7.34,8.12,0,3-.71,6-3.08,8a13,13,0,0,1-8.44,2.8,18.36,18.36,0,0,1-10.45-3.39l3.31-6.23a10.64,10.64,0,0,0,6.87,3.07c1.81,0,3.74-.9,3.74-3s-3-2.92-4.69-3.4c-4.85-1.38-8.05-2.64-8.05-8.4,0-6,4.3-10,10.26-10a20.32,20.32,0,0,1,9.31,2.45Z"/><path class="a7aea777-5399-490c-a5c7-2c9fe7c58cbb" d="M200.86,52.14a.25.25,0,0,0-.24-.12l-3.9.43-2.56-3a.25.25,0,0,0-.26-.09.26.26,0,0,0-.18.2l-.81,3.84-3.61,1.51a.28.28,0,0,0-.16.22.24.24,0,0,0,.13.24l3.4,2,.33,3.91a.25.25,0,0,0,.16.22h.09a.27.27,0,0,0,.17-.06l2.91-2.64,3.82.9a.26.26,0,0,0,.25-.08.27.27,0,0,0,0-.27l-1.61-3.58,2-3.35A.26.26,0,0,0,200.86,52.14Z"/><path class="a7aea777-5399-490c-a5c7-2c9fe7c58cbb" d="M104.2,64.28V81.66H106C110.83,81.66,115,79,115,73c0-5.56-3.66-8.69-8.85-8.69Zm41-26.85a3.16,3.16,0,0,0-3-4.78L93.84,37.9,62.14,1.1a3.15,3.15,0,0,0-5.47,1.41L46.73,50.05,1.94,68.83a3.15,3.15,0,0,0-.35,5.64L29.26,90.32,21.14,63.11h8.18l5.26,19.54h.08L41,63.11h6.25l5.94,19.54h.08L59,63.11h8.18L57.48,93.36h-8l-5.3-17.53h-.07L38.15,93.36H34.56l9.17,5.25,4,48.41A3.16,3.16,0,0,0,53,149.09l36-32.62,47.27,11.14a3.16,3.16,0,0,0,3.61-4.36L121,81.19a15.85,15.85,0,0,1-13.39,7.31H96.13V57.44h11.45A15.6,15.6,0,0,1,123.36,73c0,.14,0,.27,0,.41ZM77.44,95.21H69.78V65.75h7.66Zm1-42.8-2,3.35L78,59.34a.29.29,0,0,1,0,.27.27.27,0,0,1-.26.08l-3.81-.9L71,61.43a.27.27,0,0,1-.17.06h-.09a.25.25,0,0,1-.16-.22l-.33-3.91-3.4-2a.24.24,0,0,1-.13-.24.28.28,0,0,1,.16-.22l3.61-1.51.81-3.84a.25.25,0,0,1,.44-.11l2.56,3,3.9-.43a.26.26,0,0,1,.24.39Zm23,41.41v7.29H82.59V68h8.59V93.82Z"/><path class="a7aea777-5399-490c-a5c7-2c9fe7c58cbb" d="M150.59,112h-2.52l1.74-9h1.95c2.39,0,4.29,1.37,4.29,3.86C156.05,109.61,154.26,112,150.59,112Zm1-8.15h-1l-1.41,7.3h1.59a4,4,0,0,0,4.32-4.19C155.08,104.89,153.74,103.83,151.61,103.81Z"/><path class="a7aea777-5399-490c-a5c7-2c9fe7c58cbb" d="M158.49,109a2.08,2.08,0,0,0,2.17,2.32,3.87,3.87,0,0,0,1.58-.37l.13.8a4.12,4.12,0,0,1-1.78.41,2.91,2.91,0,0,1-3-3.08,3.67,3.67,0,0,1,3.42-3.89,2.11,2.11,0,0,1,2.29,2.12,3.42,3.42,0,0,1-.29,1.35l-4.49,0C158.5,108.79,158.49,108.89,158.49,109Zm3.78-1a2,2,0,0,0,.1-.6,1.34,1.34,0,0,0-1.49-1.38,2.44,2.44,0,0,0-2.25,2Z"/><path class="a7aea777-5399-490c-a5c7-2c9fe7c58cbb" d="M166.43,112.15a4.41,4.41,0,0,1-2.35-.72l.3-.82a4,4,0,0,0,2.12.74c.79,0,1.48-.4,1.48-1.15,0-.56-.46-.83-1.44-1.28s-1.58-.82-1.58-1.81a2.06,2.06,0,0,1,2.24-1.93,4.36,4.36,0,0,1,2.26.66l-.28.82a3.8,3.8,0,0,0-2-.69c-.75,0-1.33.39-1.33,1s.46.84,1.41,1.28,1.61.88,1.61,1.83A2.18,2.18,0,0,1,166.43,112.15Z"/><path class="a7aea777-5399-490c-a5c7-2c9fe7c58cbb" d="M170.45,112l1.27-6.52.92-.19L171.35,112Zm2.15-8a.65.65,0,0,1-.65-.71.64.64,0,0,1,.65-.7.65.65,0,0,1,.66.7A.66.66,0,0,1,172.6,103.91Z"/><path class="a7aea777-5399-490c-a5c7-2c9fe7c58cbb" d="M174.29,107.8a2.69,2.69,0,0,1,2.69-2.62,2.49,2.49,0,0,1,1.49.42l2.05-.17,0,.9-1.51-.08a2.19,2.19,0,0,1,.34,1.18,2.63,2.63,0,0,1-2.7,2.61,2.69,2.69,0,0,1-1.17-.24.92.92,0,0,0-.63.72c0,.47.44.69,1.57.92l.39.07c1.39.29,2.23.84,2.23,1.84,0,1.18-1.2,2.19-3.34,2.19-1.9,0-3.08-.82-3.08-1.94,0-.84.65-1.57,1.85-1.9a1,1,0,0,1-.54-.89,1.51,1.51,0,0,1,1.12-1.27A2.15,2.15,0,0,1,174.29,107.8Zm-.73,5.65c0,.85,1,1.34,2.29,1.34s2.36-.54,2.36-1.34c0-.6-.62-1-1.79-1.18-.54-.1-1-.21-1.31-.3C174.14,112.19,173.56,112.75,173.56,113.45Zm5-6a1.49,1.49,0,0,0-1.64-1.58,1.81,1.81,0,0,0-1.75,1.86,1.49,1.49,0,0,0,1.59,1.58A1.81,1.81,0,0,0,178.55,107.48Z"/><path class="a7aea777-5399-490c-a5c7-2c9fe7c58cbb" d="M185.4,112l.78-4a5,5,0,0,0,.11-.79c0-.72-.46-1.15-1.29-1.15a3.42,3.42,0,0,0-2.08,1l-1,5h-.9l1.29-6.59.93-.19-.19,1a3.66,3.66,0,0,1,2.25-1,1.73,1.73,0,0,1,1.88,1.77,5.25,5.25,0,0,1-.11.89l-.81,4.12Z"/><path class="a7aea777-5399-490c-a5c7-2c9fe7c58cbb" d="M189.84,109a2.09,2.09,0,0,0,2.17,2.32,3.92,3.92,0,0,0,1.59-.37l.13.8a4.17,4.17,0,0,1-1.79.41,2.91,2.91,0,0,1-3-3.08,3.68,3.68,0,0,1,3.43-3.89,2.1,2.1,0,0,1,2.28,2.12,3.59,3.59,0,0,1-.28,1.35l-4.49,0C189.86,108.79,189.84,108.89,189.84,109Zm3.79-1a2.35,2.35,0,0,0,.1-.6,1.35,1.35,0,0,0-1.5-1.38,2.44,2.44,0,0,0-2.24,2Z"/><path class="a7aea777-5399-490c-a5c7-2c9fe7c58cbb" d="M196.79,112h-.89l1.28-6.59.93-.19-.24,1.25a2.38,2.38,0,0,1,1.91-1.25,2.36,2.36,0,0,1,1.21.32l-.24.86a2.29,2.29,0,0,0-1.16-.33c-.79,0-1.42.59-2,1.57Z"/><path class="a7aea777-5399-490c-a5c7-2c9fe7c58cbb" d="M211.75,109.43c0,1.39-1.08,2.53-3.54,2.53h-2.94l1.75-9h2.53c1.84,0,2.72,1,2.72,2.22a2.41,2.41,0,0,1-2.19,2.3A2,2,0,0,1,211.75,109.43Zm-3.07-1.57H207l-.64,3.25h2c1.7,0,2.43-.69,2.43-1.7S210,107.86,208.68,107.86Zm.7-4h-1.6l-.62,3.24h1.64c1.37,0,2.52-.59,2.52-1.73C211.32,104.5,210.74,103.81,209.38,103.81Z"/><path class="a7aea777-5399-490c-a5c7-2c9fe7c58cbb" d="M214.21,112h-.89l1.28-6.59.93-.19-.24,1.25a2.38,2.38,0,0,1,1.91-1.25,2.36,2.36,0,0,1,1.21.32l-.25.86A2.25,2.25,0,0,0,217,106c-.79,0-1.42.59-1.95,1.57Z"/><path class="a7aea777-5399-490c-a5c7-2c9fe7c58cbb" d="M223.13,107.73c.2-1.08-.33-1.73-1.53-1.73a4.31,4.31,0,0,0-2,.59l-.12-.8a4.73,4.73,0,0,1,2.22-.59c1.64,0,2.64.84,2.27,2.64l-.56,2.74c-.1.51-.06.8.53.79l-.16.73c-.93.06-1.22-.43-1.25-.92h0a2.88,2.88,0,0,1-2,.95,1.89,1.89,0,0,1-1.92-1.84c0-1.41,1.31-2.3,4.46-2.25Zm-.19,1c-2.4,0-3.41.62-3.41,1.51a1.15,1.15,0,0,0,1.25,1.16,2.66,2.66,0,0,0,1.79-.79Z"/><path class="a7aea777-5399-490c-a5c7-2c9fe7c58cbb" d="M228.76,112.15a2.9,2.9,0,0,1-3-3.08,3.73,3.73,0,0,1,3.57-3.89,3.78,3.78,0,0,1,2.26.71l-.24.82a3.68,3.68,0,0,0-2.06-.71,2.85,2.85,0,0,0-2.59,3,2.07,2.07,0,0,0,2.16,2.32,4,4,0,0,0,1.58-.37l.11.8A4.08,4.08,0,0,1,228.76,112.15Z"/><path class="a7aea777-5399-490c-a5c7-2c9fe7c58cbb" d="M233.48,109a2.08,2.08,0,0,0,2.17,2.32,4,4,0,0,0,1.59-.37l.13.8a4.17,4.17,0,0,1-1.79.41,2.91,2.91,0,0,1-3-3.08,3.67,3.67,0,0,1,3.42-3.89,2.1,2.1,0,0,1,2.29,2.12,3.42,3.42,0,0,1-.29,1.35l-4.48,0C233.5,108.79,233.48,108.89,233.48,109Zm3.79-1a2.35,2.35,0,0,0,.1-.6,1.35,1.35,0,0,0-1.5-1.38,2.44,2.44,0,0,0-2.24,2Z"/><path class="a7aea777-5399-490c-a5c7-2c9fe7c58cbb" d="M241.42,112.15a4.35,4.35,0,0,1-2.34-.72l.3-.82a3.91,3.91,0,0,0,2.11.74c.79,0,1.48-.4,1.48-1.15,0-.56-.46-.83-1.43-1.28s-1.59-.82-1.59-1.81a2.06,2.06,0,0,1,2.25-1.93,4.42,4.42,0,0,1,2.26.66l-.29.82a3.8,3.8,0,0,0-2-.69c-.75,0-1.32.39-1.32,1s.46.84,1.41,1.28,1.61.88,1.61,1.83A2.19,2.19,0,0,1,241.42,112.15Z"/><path class="a7aea777-5399-490c-a5c7-2c9fe7c58cbb" d="M268.67,69.3a4.18,4.18,0,1,1,4.18,4.18A4.18,4.18,0,0,1,268.67,69.3Zm4.18-3.85a3.84,3.84,0,1,0,3.8,3.85A3.84,3.84,0,0,0,272.85,65.45ZM272,71.51h-.64V67h1.46c1.13,0,1.72.52,1.72,1.39a1.32,1.32,0,0,1-.89,1.3l1.13,1.83H274l-1-1.67-1,0Zm.79-2.2c.74,0,1.11-.34,1.11-.89s-.37-.86-1.15-.86H272v1.78Z"/></g></g></svg>
